<?xml version="1.0" encoding="UTF-8" standalone="no"?>
<!-- Created with Inkscape (http://www.inkscape.org/) -->

<svg
   xmlns:dc="http://purl.org/dc/elements/1.1/"
   xmlns:cc="http://creativecommons.org/ns#"
   xmlns:rdf="http://www.w3.org/1999/02/22-rdf-syntax-ns#"
   xmlns:svg="http://www.w3.org/2000/svg"
   xmlns="http://www.w3.org/2000/svg"
   xmlns:sodipodi="http://sodipodi.sourceforge.net/DTD/sodipodi-0.dtd"
   xmlns:inkscape="http://www.inkscape.org/namespaces/inkscape"
   width="210mm"
   height="297mm"
   viewBox="0 0 744.09448819 1052.3622047"
   id="svg2"
   version="1.1"
   inkscape:version="0.91 r13725"
   sodipodi:docname="sacecera.svg">
  <defs
     id="defs4" />
  <sodipodi:namedview
     id="base"
     pagecolor="#ffffff"
     bordercolor="#666666"
     borderopacity="1.0"
     inkscape:pageopacity="0.0"
     inkscape:pageshadow="2"
     inkscape:zoom="0.35"
     inkscape:cx="-119.28571"
     inkscape:cy="514.28571"
     inkscape:document-units="px"
     inkscape:current-layer="layer1"
     showgrid="false"
     inkscape:window-width="1920"
     inkscape:window-height="1016"
     inkscape:window-x="0"
     inkscape:window-y="27"
     inkscape:window-maximized="1">
    <sodipodi:guide
       position="-2122.8572,57.142858"
       orientation="1,0"
       id="guide4263" />
  </sodipodi:namedview>
  <metadata
     id="metadata7">
    <rdf:RDF>
      <cc:Work
         rdf:about="">
        <dc:format>image/svg+xml</dc:format>
        <dc:type
           rdf:resource="http://purl.org/dc/dcmitype/StillImage" />
        <dc:title></dc:title>
      </cc:Work>
    </rdf:RDF>
  </metadata>
  <g
     inkscape:label="Layer 1"
     inkscape:groupmode="layer"
     id="layer1">
    <path
       style="fill:#93ac93;fill-rule:evenodd;stroke:#000000;stroke-width:0.16261411px;stroke-linecap:butt;stroke-linejoin:miter;stroke-opacity:1"
       d="M 150.35388,171.79479 C 188.38971,144.78047 119.58951,140.1495 119.58951,140.1495 l -22.933671,0.38589 -14.542998,7.33234 -6.712195,13.50712 22.933303,1.54371 7.271731,-9.64783 13.98383,-1.15783 13.98365,3.47324 6.71229,3.08742 0.55934,3.08725 -59.850631,41.67921 -6.152856,3.47322 0,9.64799 84.462147,-2.70144 0,-17.75221 -22.37424,-1.92969 5.03436,10.03391 -44.188781,0.38595 z"
       id="path3359"
       inkscape:connector-curvature="0" />
    <path
       style="fill:#93ac93;fill-rule:evenodd;stroke:#000000;stroke-width:0.16261411px;stroke-linecap:butt;stroke-linejoin:miter;stroke-opacity:1"
       d="m 208.52648,139.76352 21.25537,-0.38589 1.11859,62.13278 19.57735,2.70139 -1.11878,9.64799 -55.93514,-1.15775 6.7122,-10.80565 11.18712,-0.38598 -1.67811,-49.01154 -13.98365,4.63098 -17.89932,-7.7184 z"
       id="path3361"
       inkscape:connector-curvature="0" />
    <path
       style="fill:#87aade;fill-rule:evenodd;stroke:#000000;stroke-width:0.16261411px;stroke-linecap:butt;stroke-linejoin:miter;stroke-opacity:1"
       d="m 343.88967,204.2118 c -25.7301,12.73541 -30.23919,14.59532 -40.83289,13.89308 -10.26205,-0.68013 -28.21235,-5.72027 -38.59507,-10.41977 -13.30255,-6.02111 -20.13678,-19.6819 -0.55953,-23.9269 19.57735,-4.24509 -443.42307,-2.18853 42.51093,-13.50712 16.29821,-0.37964 49.22285,8.49017 46.42613,10.80566 -2.79671,2.31557 27.96757,3.85919 -17.8994,2.31557 -45.8668,-1.54372 -43.62952,26.24247 -46.42614,24.69876 -2.7968,-1.54373 -0.55962,7.33243 26.84898,-1.15784 27.40804,-8.49025 32.44239,-2.70144 32.44239,-2.70144"
       id="path3391"
       inkscape:connector-curvature="0"
       sodipodi:nodetypes="cssssssssc" />
    <path
       style="fill:#87aade;fill-rule:evenodd;stroke:#000000;stroke-width:0.16261411px;stroke-linecap:butt;stroke-linejoin:miter;stroke-opacity:1"
       d="m 435.05986,205.54023 c -25.73038,12.73535 -30.20494,14.27898 -40.83271,13.89309 -10.6276,-0.38588 -35.79854,0.38589 -38.59526,-10.41987 -2.79681,-10.80566 -20.13669,-19.68182 -0.55943,-23.9269 19.57743,-4.24507 34.12061,-23.15512 42.51092,-13.50711 8.39005,9.6479 49.22285,8.49018 46.42614,10.80576 -2.79672,2.31539 27.96757,3.8591 -17.89932,2.31539 -45.86689,-1.54363 -43.62924,26.24247 -46.42623,24.69875 -2.79662,-1.54362 -0.55925,7.33252 26.84898,-1.15764 27.40823,-8.49027 32.4424,-2.70147 32.4424,-2.70147"
       id="path3391-3"
       inkscape:connector-curvature="0" />
    <flowRoot
       xml:space="preserve"
       id="flowRoot3415"
       style="fill:black;stroke:none;stroke-opacity:1;stroke-width:1px;stroke-linejoin:miter;stroke-linecap:butt;fill-opacity:1;font-family:sans-serif;font-style:normal;font-weight:normal;font-size:40px;line-height:125%;letter-spacing:0px;word-spacing:0px"><flowRegion
         id="flowRegion3417"><rect
           id="rect3419"
           width="474.28571"
           height="271.42856"
           x="-1614.2858"
           y="795.21936" /></flowRegion><flowPara
         id="flowPara3421"></flowPara></flowRoot>    <text
       xml:space="preserve"
       style="font-style:normal;font-weight:normal;font-size:136.82223511px;line-height:125%;font-family:sans-serif;letter-spacing:0px;word-spacing:0px;fill:#000000;fill-opacity:1;stroke:none;stroke-width:1px;stroke-linecap:butt;stroke-linejoin:miter;stroke-opacity:1"
       x="304.98398"
       y="304.04782"
       id="text3423"
       sodipodi:linespacing="125%"
       transform="scale(1.4121776,0.70812623)"><tspan
         sodipodi:role="line"
         id="tspan3425"
         x="304.98398"
         y="304.04782">.tk</tspan></text>
    <flowRoot
       xml:space="preserve"
       id="flowRoot3427"
       style="fill:black;stroke:none;stroke-opacity:1;stroke-width:1px;stroke-linejoin:miter;stroke-linecap:butt;fill-opacity:1;font-family:sans-serif;font-style:normal;font-weight:normal;font-size:40px;line-height:125%;letter-spacing:0px;word-spacing:0px"><flowRegion
         id="flowRegion3429"><rect
           id="rect3431"
           width="108.57143"
           height="91.428574"
           x="-1574.2858"
           y="906.64795" /></flowRegion><flowPara
         id="flowPara3433"></flowPara></flowRoot>    <ellipse
       style="fill:#ff6600"
       id="path3435"
       cx="-374.69098"
       cy="243.18614"
       rx="348.1467"
       ry="3.8631821"
       transform="scale(-1,1)" />
    <flowRoot
       xml:space="preserve"
       id="flowRoot3437"
       style="fill:black;stroke:none;stroke-opacity:1;stroke-width:1px;stroke-linejoin:miter;stroke-linecap:butt;fill-opacity:1;font-family:sans-serif;font-style:normal;font-weight:normal;font-size:40px;line-height:125%;letter-spacing:0px;word-spacing:0px"><flowRegion
         id="flowRegion3439"><rect
           id="rect3441"
           width="742.85712"
           height="151.42857"
           x="-2071.4285"
           y="963.79077" /></flowRegion><flowPara
         id="flowPara3443"></flowPara></flowRoot>    <flowRoot
       xml:space="preserve"
       id="flowRoot4255"
       style="font-style:normal;font-weight:normal;font-size:40px;line-height:125%;font-family:sans-serif;letter-spacing:0px;word-spacing:0px;fill:#000000;fill-opacity:1;stroke:none;stroke-width:1px;stroke-linecap:butt;stroke-linejoin:miter;stroke-opacity:1"
       transform="matrix(0.78613773,0,0,0.54084547,1631.689,-446.57743)"><flowRegion
         id="flowRegion4257"><rect
           id="rect4259"
           width="845.71429"
           height="114.28571"
           x="-2034.2858"
           y="1220.9336" /></flowRegion><flowPara
         id="flowPara4261">We don't fake it we just take it.</flowPara></flowRoot>    <ellipse
       style="fill:#ffff00"
       id="path4269"
       cx="347.08948"
       cy="143.30669"
       rx="44.922161"
       ry="25.041319" />
    <rect
       style="fill:#0066ff"
       id="rect4286"
       width="693.84167"
       height="14.309325"
       x="18.860235"
       y="254.20401" />
    <rect
       style="fill:#0066ff"
       id="rect4288"
       width="725.71423"
       height="16.694216"
       x="14.285713"
       y="275.668" />
    <rect
       style="fill:#0066ff"
       id="rect4290"
       width="228.0116"
       height="11.924438"
       x="455.59851"
       y="99.186295" />
    <rect
       style="fill:#0066ff"
       id="rect4292"
       width="213.30116"
       height="11.924438"
       x="465.40552"
       y="118.26546" />
    <rect
       style="fill:#0066ff"
       id="rect4294"
       width="19.613901"
       height="54.852409"
       x="220.2316"
       y="75.337418" />
    <rect
       style="fill:#0066ff"
       id="rect4296"
       width="509.96136"
       height="50.082638"
       x="183.45557"
       y="58.643177" />
    <rect
       style="fill:#0066ff"
       id="rect4298"
       width="17.162163"
       height="35.773315"
       x="222.68349"
       y="53.873371" />
    <rect
       style="fill:#0066ff"
       id="rect4300"
       width="17.162163"
       height="50.082638"
       x="225.13493"
       y="39.564075" />
    <rect
       style="fill:#0066ff"
       id="rect4302"
       width="17.162163"
       height="88.240845"
       x="225.13493"
       y="37.179218" />
    <rect
       style="fill:#0066ff"
       id="rect4304"
       width="36.77607"
       height="45.312866"
       x="217.77992"
       y="30.024614" />
    <rect
       style="fill:#0066ff"
       id="rect4309"
       width="36.77607"
       height="42.927979"
       x="215.32837"
       y="89.646683" />
    <rect
       style="fill:#0066ff"
       id="rect4311"
       width="31.872585"
       height="52.467525"
       x="212.87636"
       y="30.024614" />
    <ellipse
       style="fill:#0066ff"
       id="path4313"
       cx="203.06969"
       cy="7.3680596"
       rx="2.4517376"
       ry="1.192444" />
    <ellipse
       style="fill:#0066ff"
       id="path4315"
       cx="230.03871"
       cy="24.062334"
       rx="26.969112"
       ry="3.5773313" />
    <ellipse
       style="fill:#0066ff"
       id="path4319"
       cx="232.49049"
       cy="22.86986"
       rx="22.065638"
       ry="19.079103" />
    <rect
       style="fill:#0066ff"
       id="rect4337"
       width="68.648651"
       height="16.694216"
       x="203.06969"
       y="120.65034" />
    <rect
       style="fill:#0066ff"
       id="rect4339"
       width="147.10428"
       height="7.1546626"
       x="531.60236"
       y="223.20042" />
    <rect
       style="fill:#0066ff"
       id="rect4341"
       width="66.196915"
       height="224.17944"
       x="673.8031"
       y="61.028187" />
    <rect
       style="fill:#0066ff"
       id="rect4343"
       width="483.80951"
       height="43.51474"
       x="256.19037"
       y="58.756824" />
    <rect
       style="fill:#0066ff"
       id="rect4345"
       width="33.366173"
       height="27.482992"
       x="17.066311"
       y="255.71819" />
    <flowRoot
       xml:space="preserve"
       id="flowRoot4349"
       style="fill:#d40000;stroke:none;stroke-opacity:1;stroke-width:1px;stroke-linejoin:miter;stroke-linecap:butt;fill-opacity:1;font-family:sans-serif;font-style:normal;font-weight:normal;font-size:80px;line-height:125%;letter-spacing:0px;word-spacing:0px;"><flowRegion
         id="flowRegion4351"><rect
           id="rect4353"
           width="714.28571"
           height="42.857143"
           x="-1854.2858"
           y="940.93365"
           style="font-size:80px;fill:#d40000;" /></flowRegion><flowPara
         id="flowPara4355"></flowPara></flowRoot>    <flowRoot
       xml:space="preserve"
       id="flowRoot4357"
       style="font-style:normal;font-variant:normal;font-weight:bold;font-stretch:normal;font-size:45px;line-height:125%;font-family:sans-serif;-inkscape-font-specification:'sans-serif Bold';letter-spacing:0px;word-spacing:0px;fill:#ff0000;fill-opacity:1;stroke:none;stroke-width:1px;stroke-linecap:butt;stroke-linejoin:miter;stroke-opacity:1"
       transform="matrix(2.0802685,0,0,0.93616672,3917.4538,-628.21537)"><flowRegion
         id="flowRegion4359"><rect
           id="rect4361"
           width="771.42859"
           height="134.28572"
           x="-1877.1428"
           y="935.21936"
           style="font-style:normal;font-variant:normal;font-weight:bold;font-stretch:normal;font-size:45px;font-family:sans-serif;-inkscape-font-specification:'sans-serif Bold';fill:#ff0000" /></flowRegion><flowPara
         id="flowPara4363">LA SACECERA</flowPara></flowRoot>  </g>
</svg>
